<svg width="28" height="23" viewBox="0 0 28 23" fill="none" xmlns="http://www.w3.org/2000/svg">
<path fill-rule="evenodd" clip-rule="evenodd" d="M13.9564 0.0151367C10.2989 0.0151367 9.84026 0.0278967 8.40383 0.0818404C6.97039 0.135651 5.99141 0.323046 5.13479 0.597076C4.2492 0.880301 3.49816 1.25931 2.74942 1.87553C2.00073 2.49179 1.54024 3.10994 1.19613 3.83883C0.863192 4.54388 0.635512 5.34965 0.570133 6.52945C0.504593 7.71172 0.48909 8.0892 0.48909 11.0996C0.48909 14.1099 0.504593 14.4874 0.570133 15.6696C0.635512 16.8494 0.863192 17.6552 1.19613 18.3602C1.54024 19.0891 2.00073 19.7073 2.74942 20.3236C3.49816 20.9398 4.2492 21.3188 5.13479 21.602C5.99141 21.876 6.97039 22.0634 8.40383 22.1172C9.84026 22.1712 10.2989 22.1839 13.9564 22.1839C17.6139 22.1839 18.0725 22.1712 19.5089 22.1172C20.9423 22.0634 21.9213 21.876 22.7779 21.602C23.6635 21.3188 24.4146 20.9398 25.1633 20.3236C25.912 19.7073 26.3725 19.0891 26.7167 18.3602C27.0495 17.6552 27.2772 16.8494 27.3426 15.6696C27.4081 14.4874 27.4236 14.1099 27.4236 11.0996C27.4236 8.0892 27.4081 7.71172 27.3426 6.52945C27.2772 5.34965 27.0495 4.54388 26.7167 3.83883C26.3725 3.10994 25.912 2.49179 25.1633 1.87553C24.4146 1.25931 23.6635 0.880301 22.7779 0.597076C21.9213 0.323046 20.9423 0.135651 19.5089 0.0818404C18.0725 0.0278967 17.6139 0.0151367 13.9564 0.0151367ZM13.9564 2.01221C17.5523 2.01221 17.9783 2.02351 19.3983 2.07684C20.7114 2.12612 21.4245 2.30669 21.899 2.45849C22.5276 2.65957 22.9763 2.89977 23.4475 3.28767C23.9188 3.67552 24.2106 4.04477 24.4549 4.56216C24.6393 4.95274 24.8587 5.53965 24.9186 6.62037C24.9834 7.78918 24.9971 8.13977 24.9971 11.0994C24.9971 14.0591 24.9834 14.4097 24.9186 15.5785C24.8587 16.6592 24.6393 17.2461 24.4549 17.6367C24.2106 18.1541 23.9188 18.5233 23.4475 18.9112C22.9763 19.2991 22.5276 19.5393 21.899 19.7404C21.4245 19.8922 20.7114 20.0727 19.3983 20.122C17.9785 20.1753 17.5526 20.1866 13.9564 20.1866C10.3602 20.1866 9.93437 20.1753 8.51446 20.122C7.20141 20.0727 6.48833 19.8922 6.01378 19.7404C5.38516 19.5393 4.93654 19.2991 4.4653 18.9112C3.99407 18.5233 3.70218 18.1541 3.45788 17.6367C3.27345 17.2461 3.05405 16.6592 2.99418 15.5785C2.92939 14.4097 2.91565 14.0591 2.91565 11.0994C2.91565 8.13977 2.92939 7.78918 2.99418 6.62037C3.05405 5.53965 3.27345 4.95274 3.45788 4.56216C3.70218 4.04477 3.99401 3.67552 4.4653 3.28767C4.93654 2.89977 5.38516 2.65957 6.01378 2.45849C6.48833 2.30669 7.20141 2.12612 8.51446 2.07684C9.93453 2.02351 10.3605 2.01221 13.9564 2.01221ZM7.04077 11.0993C7.04077 7.95568 10.137 5.40731 13.9564 5.40731C17.7758 5.40731 20.872 7.95568 20.872 11.0993C20.872 14.2429 17.7758 16.7913 13.9564 16.7913C10.137 16.7913 7.04077 14.2429 7.04077 11.0993ZM13.9564 14.7943C11.4771 14.7943 9.46729 13.1401 9.46729 11.0995C9.46729 9.05891 11.4771 7.4047 13.9564 7.4047C16.4356 7.4047 18.4455 9.05891 18.4455 11.0995C18.4455 13.1401 16.4356 14.7943 13.9564 14.7943ZM21.1453 6.5127C22.0378 6.5127 22.7614 5.91721 22.7614 5.18259C22.7614 4.44798 22.0378 3.85244 21.1453 3.85244C20.2528 3.85244 19.5292 4.44798 19.5292 5.18259C19.5292 5.91721 20.2528 6.5127 21.1453 6.5127Z" fill="white"/>
</svg>
