<svg width="28" height="20" viewBox="0 0 28 20" fill="none" xmlns="http://www.w3.org/2000/svg">
<path d="M27.1776 2.81022C26.1879 3.18117 25.1223 3.43203 24.0046 3.54411C25.1461 2.96767 26.0219 2.05365 26.4345 0.964822C25.3658 1.49856 24.1848 1.88685 22.9232 2.09501C21.9178 1.18899 20.4807 0.62323 18.8903 0.62323C15.8406 0.62323 13.3664 2.71148 13.3664 5.28677C13.3664 5.65238 13.4139 6.00731 13.5087 6.3489C8.91608 6.15409 4.84514 4.29935 2.11801 1.47454C1.64215 2.16573 1.37022 2.96767 1.37022 3.82165C1.37022 5.43888 2.34567 6.86663 3.82859 7.70326C2.92429 7.68058 2.07058 7.46842 1.32438 7.12149V7.17887C1.32438 9.43925 3.22942 11.3247 5.75893 11.7517C5.29571 11.8611 4.8072 11.9158 4.30288 11.9158C3.94717 11.9158 3.59936 11.8878 3.26262 11.8331C3.96614 13.6851 6.00556 15.0342 8.4244 15.0702C6.53359 16.3218 4.14953 17.0677 1.56152 17.0677C1.11569 17.0677 0.674609 17.0463 0.243011 17.0036C2.68873 18.3246 5.59451 19.0972 8.71371 19.0972C18.8792 19.0972 24.4362 11.9918 24.4362 5.82851C24.4362 5.62569 24.4315 5.42287 24.422 5.22405C25.5018 4.56622 26.4393 3.7456 27.1776 2.81022Z" fill="white"/>
</svg>
