<svg width="77" height="77" viewBox="0 0 77 77" fill="none" xmlns="http://www.w3.org/2000/svg">
<circle cx="38.5" cy="38.5" r="38.5" fill="#E7F3CC"/>
<path d="M33.405 44.775V23.74H21.68L21.47 29.69C21.4 31.5333 21.2833 33.3067 21.12 35.01C20.98 36.69 20.7467 38.2067 20.42 39.56C20.1167 40.89 19.6967 41.975 19.16 42.815C18.6467 43.655 17.97 44.145 17.13 44.285L14.295 43.76C15.2283 43.8067 15.9983 43.4683 16.605 42.745C17.235 42.0217 17.7133 41.0067 18.04 39.7C18.39 38.3933 18.6467 36.865 18.81 35.115C18.9733 33.365 19.09 31.475 19.16 29.445L19.44 21.5H35.96V44.775H33.405ZM13.385 51.495L13.42 43.76H39.635V51.495H37.22V46H15.835L15.8 51.495H13.385ZM41.3131 46L52.5131 21.5H55.0681L66.2681 46H63.5381L53.2481 23.005H54.2981L44.0081 46H41.3131ZM45.7231 39.455L46.4931 37.355H60.7381L61.5081 39.455H45.7231Z" fill="black"/>
</svg>
