<svg width="28" height="23" viewBox="0 0 28 23" fill="none" xmlns="http://www.w3.org/2000/svg">
<path d="M14.8757 22.2582H1.97567C1.15441 22.2582 0.48909 21.7102 0.48909 21.0345V1.31289C0.48909 0.63704 1.15452 0.0893555 1.97567 0.0893555H25.9372C26.7581 0.0893555 27.4236 0.63704 27.4236 1.31289V21.0345C27.4236 21.7103 26.758 22.2582 25.9372 22.2582H19.0735V13.6732H22.5746L23.0988 10.3275H19.0735V8.19143C19.0735 7.22276 19.4004 6.56265 21.088 6.56265L23.2405 6.56188V3.56944C22.8683 3.52866 21.5905 3.43757 20.1039 3.43757C17.0004 3.43757 14.8757 4.99676 14.8757 7.86008V10.3275H11.3657V13.6732H14.8757V22.2582Z" fill="white"/>
</svg>
