<svg width="28" height="15" viewBox="0 0 28 15" fill="none" xmlns="http://www.w3.org/2000/svg">
<path fill-rule="evenodd" clip-rule="evenodd" d="M13.6687 9.05295C12.3305 9.05295 9.04376 9.05643 9.04376 9.05643V6.37374H17.2596C17.8319 9.6198 16.1058 14.4889 9.04376 14.4889C4.31912 14.4889 0.489075 11.4561 0.489075 7.71509C0.489075 3.974 4.31912 0.941284 9.04376 0.941284C11.2607 0.941284 13.2806 1.60901 14.8004 2.70435C13.6227 3.58499 13.2451 3.92069 12.9244 4.20593C12.7575 4.3543 12.606 4.48902 12.3652 4.67969C11.4861 4.10405 10.5277 3.69105 9.04376 3.69105C6.23706 3.69105 4.04647 5.49268 4.04647 7.71509C4.04647 9.9375 6.23706 11.7391 9.04376 11.7391C11.8172 11.7391 12.944 10.7921 13.6687 9.05295ZM24.4592 4.16083V6.50819H27.4237V8.18487H24.4592V10.5993H22.3417V8.18487H19.2925V6.50819H22.3417V4.16083H24.4592Z" fill="white"/>
</svg>
