<svg width="50" height="53" viewBox="0 0 50 53" fill="none" xmlns="http://www.w3.org/2000/svg">
<rect y="0.901184" width="50" height="51.2451" rx="11" fill="#D3F6EE"/>
<path d="M18.0345 35.3022H21.678V35.6802H18.0345V35.3022ZM34.0395 35.3022H42.0001V35.6802H34.0395V35.3022ZM33.8446 21.4929C34.1761 22.0627 34.4439 22.563 34.6571 23.0087C34.726 21.5764 34.9244 20.7021 35.1207 20.1998V24.1464C35.223 24.47 35.2964 24.8104 35.3004 25.1685C35.3007 25.4228 35.2609 25.6561 35.1814 25.8659C35.164 25.9129 35.1427 25.9581 35.1207 26.0027V33.3787C35.1207 33.6669 35.2123 33.9433 35.3753 34.147C35.5384 34.3508 35.7595 34.4653 35.9901 34.4653C36.2206 34.4653 36.4418 34.3508 36.6048 34.147C36.7678 33.9433 36.8594 33.6669 36.8594 33.3787V25.4465H37.1852V33.3787C37.1852 33.6669 37.2768 33.9432 37.4398 34.1469C37.6028 34.3507 37.8239 34.4651 38.0545 34.4651C38.285 34.4651 38.5061 34.3507 38.6691 34.1469C38.8321 33.9432 38.9237 33.6669 38.9237 33.3787V24.5048C36.9405 21.8429 35.5848 18.9052 35.2571 18.166C35.1947 18.192 35.1291 18.2249 35.0609 18.268C34.6828 18.5022 34.2751 19.0147 33.9898 19.9233C33.8698 20.3022 33.7665 20.7527 33.6864 21.2914C33.7465 21.3489 33.7997 21.4168 33.8446 21.4929ZM33.5091 24.565L33.5105 24.6401L33.5426 24.6486C33.5316 24.6206 33.5204 24.5927 33.5091 24.565Z" fill="#060606"/>
<path d="M36.4385 20.0116C37.046 21.1694 37.8962 22.6443 38.9236 24.0581V20.202C38.9653 20.3087 39.0073 20.4313 39.0488 20.5743C39.2469 21.2609 39.4136 22.3873 39.413 24.1451C39.413 24.6297 39.4006 25.162 39.3732 25.7465C39.3687 25.8422 39.3799 25.938 39.4062 26.0281C39.4324 26.1182 39.4731 26.2006 39.5257 26.2703C39.5784 26.34 39.6419 26.3955 39.7123 26.4334C39.7828 26.4713 39.8587 26.4907 39.9354 26.4906C40.0788 26.4904 40.2167 26.4217 40.3209 26.2987C40.4252 26.1756 40.4879 26.0075 40.4963 25.8286C40.5231 25.2681 40.537 24.7067 40.5379 24.1451C40.5351 21.4932 40.1963 20.0254 39.734 19.1428C39.5032 18.7049 39.2328 18.4237 38.9832 18.2679C38.7339 18.1111 38.5149 18.0795 38.3903 18.0801L38.388 18.0802C38.3853 18.0801 38.383 18.0792 38.3802 18.0792H35.6641C35.6608 18.0792 35.6576 18.0804 35.6545 18.0804H35.6539C35.603 18.0806 35.5522 18.0852 35.5018 18.0941C35.6579 18.4422 35.9781 19.1346 36.4385 20.0116Z" fill="#060606"/>
<path d="M37.022 17.5783C37.8956 17.5783 38.6039 16.6932 38.6039 15.6013C38.6039 14.5094 37.8956 13.6242 37.022 13.6242C36.1484 13.6242 35.4401 14.5094 35.4401 15.6013C35.4401 16.6932 36.1484 17.5783 37.022 17.5783Z" fill="#060606"/>
<path d="M10.7654 27.7396V45.4189C10.7654 46.4515 11.4352 47.288 12.2609 47.288C13.0869 47.288 13.7567 46.4515 13.7567 45.4189V31.7712H14.3174V45.4189C14.3174 46.4515 14.9871 47.288 15.8129 47.288C16.6388 47.288 17.3086 46.4515 17.3086 45.4189V22.7473C17.3893 22.956 17.4612 23.1699 17.5239 23.388C17.8648 24.5692 18.1516 26.5071 18.1506 29.532C18.1506 30.3656 18.1291 31.2815 18.0824 32.2873C18.0512 32.9541 18.4585 33.526 18.9922 33.5653C19.2484 33.5839 19.5001 33.4746 19.6918 33.2614C19.8835 33.0481 19.9996 32.7485 20.0146 32.4282C20.0635 31.3799 20.0862 30.4176 20.0862 29.5321C20.0813 24.9688 19.4982 22.4436 18.7031 20.9249C18.3056 20.1711 17.8407 19.6876 17.4113 19.4199C16.9951 19.1577 16.6293 19.0998 16.4116 19.0971C16.3992 19.0965 16.3866 19.0947 16.3738 19.0947H15.806L15.5086 22.0003L14.3292 20.2239L15.1445 19.0947H12.9293L13.7446 20.2239L12.5652 22.0003L12.2678 19.0947H11.7003C11.6641 19.0947 11.6284 19.0979 11.5933 19.103C11.1649 19.1103 10.7247 19.1412 10.2983 19.1556C10.1776 19.1595 10.0573 19.1633 9.93973 19.1632C9.24902 19.1722 8.65036 19.0498 8.37238 18.8345C8.22855 18.7278 8.15017 18.6301 8.07577 18.462C8.00392 18.2926 7.93594 18.0178 7.93545 17.5511C7.93473 17.0472 8.02122 16.3313 8.24912 15.3982C8.32378 15.0913 8.29787 14.76 8.17707 14.477C8.05628 14.194 7.85049 13.9825 7.60497 13.8891C7.59844 13.8865 7.59203 13.8853 7.5855 13.8831V10.7313C7.84981 10.2013 8.52419 9.2547 9.70228 10.1325C12.8942 12.5105 13.0893 6.9573 13.0893 6.9573C13.0893 6.9573 11.4159 8.11658 10.2062 6.75592C9.18237 5.60435 7.94235 6.25747 7.58538 6.48545V6H7.1418V13.8584C6.96856 13.8996 6.80764 13.9992 6.67643 14.1465C6.54522 14.2937 6.44872 14.483 6.39737 14.6939C6.1321 15.7868 6.00097 16.7182 6 17.5508C5.99952 18.3134 6.11552 19.0058 6.36629 19.5962C6.74152 20.4942 7.40792 21.0323 8.0419 21.2784C8.68363 21.5345 9.3297 21.5792 9.93973 21.5818C9.97312 21.5818 10.0061 21.5809 10.0394 21.5806C10.2897 21.5779 10.5336 21.5681 10.7653 21.5566L10.7654 27.7396Z" fill="#060606"/>
<path d="M14.4808 18.1874C15.7729 17.9224 16.7586 16.5212 16.7586 14.8316C16.7586 12.9527 15.5402 11.4299 14.0368 11.4299C12.5337 11.4299 11.3151 12.9527 11.3151 14.8316C11.3151 16.5212 12.301 17.9224 13.5929 18.1874C13.7374 18.2171 13.8856 18.2332 14.0368 18.2332C14.188 18.2332 14.3363 18.2172 14.4808 18.1874ZM28.223 25.5409C28.101 24.0191 27.8281 23.0506 27.4882 22.4011C27.2574 21.9633 26.9871 21.6821 26.7376 21.5265C26.4881 21.3694 26.2691 21.3381 26.1444 21.3387H26.1442C26.1409 21.3387 26.138 21.3375 26.1347 21.3375H25.6504C25.8713 22.5027 25.9292 23.5761 25.9292 24.3789C25.9292 24.8624 25.9084 25.2474 25.8898 25.4967V27.1109H23.6634V25.4989C23.6363 25.1266 23.6231 24.7529 23.6237 24.379C23.6237 23.5761 23.6817 22.5028 23.9027 21.3377H23.4185C23.4152 21.3377 23.412 21.3389 23.4089 21.3389H23.4083C23.2838 21.3383 23.0645 21.3693 22.8153 21.5266C22.4371 21.7608 22.0295 22.2736 21.7442 23.182C21.4554 24.0941 21.2615 25.4125 21.2605 27.4036C21.2608 27.9183 21.2737 28.4778 21.3026 29.0874C21.3111 29.2662 21.3738 29.4343 21.4781 29.5573C21.5823 29.6803 21.7202 29.7489 21.8636 29.7491C21.8747 29.7491 21.8858 29.7485 21.8971 29.7479C22.046 29.737 22.1853 29.6525 22.2844 29.5132C22.3835 29.3739 22.4343 29.1911 22.4256 29.005C22.3996 28.4718 22.3863 27.9378 22.3856 27.4036C22.3831 25.2753 22.6313 24.0817 22.8754 23.458V36.6374C22.8754 36.9255 22.967 37.2018 23.13 37.4056C23.2931 37.6093 23.5142 37.7238 23.7447 37.7238C23.9752 37.7238 24.1963 37.6093 24.3594 37.4056C24.5224 37.2018 24.614 36.9255 24.614 36.6374V28.7052H24.9397V36.6374C24.9397 36.9255 25.0313 37.2019 25.1944 37.4057C25.3574 37.6095 25.5785 37.7239 25.8091 37.7239C26.0397 37.7239 26.2608 37.6095 26.4238 37.4057C26.5869 37.2019 26.6785 36.9255 26.6785 36.6374V23.461C26.7201 23.5676 26.7621 23.6901 26.8034 23.8328C27.0017 24.5196 27.1683 25.6458 27.1678 27.4039C27.1678 27.8882 27.1552 28.4207 27.1281 29.0053C27.1163 29.2614 27.2167 29.4912 27.3748 29.6257C27.431 28.316 27.5879 27.2633 27.8512 26.4311C27.963 26.0735 28.0904 25.7813 28.223 25.5409Z" fill="#060606"/>
<path d="M23.8345 24.3789C23.8345 24.7819 23.8493 25.1141 23.8651 25.3536H25.688C25.7035 25.1141 25.7184 24.7819 25.7184 24.3789C25.7184 23.5776 25.6583 22.5003 25.4325 21.3375H24.1203C23.8946 22.5004 23.8345 23.5777 23.8345 24.3789Z" fill="#060606"/>
<path d="M24.7765 20.8369C25.6502 20.8369 26.3584 19.9518 26.3584 18.8599C26.3584 17.768 25.6502 16.8829 24.7765 16.8829C23.9029 16.8829 23.1947 17.768 23.1947 18.8599C23.1947 19.9518 23.9029 20.8369 24.7765 20.8369Z" fill="#060606"/>
<path d="M24.775 26.774C24.9933 26.774 25.1704 26.5527 25.1704 26.2797C25.1704 26.0068 24.9933 25.7855 24.775 25.7855C24.5566 25.7855 24.3795 26.0068 24.3795 26.2797C24.3795 26.5527 24.5566 26.774 24.775 26.774Z" fill="#060606"/>
<path d="M30.2881 21.1764H32.4501C32.1707 20.6167 31.6751 20.243 31.1082 20.243C30.2346 20.243 29.5264 21.128 29.5264 22.2198C29.5264 23.3118 30.2346 24.197 31.1082 24.197C31.6971 24.197 32.2099 23.794 32.4822 23.1972H30.288V21.1764H30.2881Z" fill="#060606"/>
<path d="M31.6357 22.7286C31.8751 22.7286 32.0692 22.486 32.0692 22.1867C32.0692 21.8875 31.8751 21.6449 31.6357 21.6449C31.3962 21.6449 31.2021 21.8875 31.2021 22.1867C31.2021 22.486 31.3962 22.7286 31.6357 22.7286Z" fill="#060606"/>
<path d="M35.0585 25.1726C35.0535 24.7218 34.9287 24.2912 34.7053 23.7357C34.4787 23.1833 34.1392 22.5136 33.649 21.6709C33.6056 21.5962 33.5508 21.5329 33.4878 21.4847C33.4248 21.4365 33.3548 21.4042 33.2818 21.3898C33.2088 21.3755 33.1343 21.3792 33.0625 21.4008C32.9907 21.4224 32.9229 21.4615 32.8632 21.5159C32.8035 21.5702 32.7529 21.6387 32.7144 21.7174C32.6758 21.7961 32.6501 21.8836 32.6386 21.9747C32.627 22.0659 32.63 22.159 32.6473 22.2487C32.6646 22.3385 32.6959 22.4231 32.7393 22.4977C33.2077 23.302 33.519 23.9231 33.704 24.376C33.8226 24.6595 33.8849 24.8794 33.9137 25.0176C33.7538 25.0123 33.497 24.951 33.2486 24.8773C33.1147 24.8386 32.9812 24.798 32.8515 24.7645C32.7424 24.7373 32.6398 24.7134 32.5219 24.7047C32.5035 24.7023 32.4854 24.6976 32.4666 24.6976H29.7503C29.7471 24.6976 29.7441 24.6988 29.7408 24.6988H29.7402C29.6154 24.6982 29.3965 24.7295 29.1471 24.8866C28.769 25.121 28.3614 25.6336 28.076 26.5419C27.7874 27.454 27.5935 28.7727 27.5925 30.7635C27.5925 31.2785 27.6058 31.8377 27.6345 32.4473C27.6432 32.6334 27.7107 32.8075 27.8222 32.9314C27.9336 33.0552 28.0799 33.1187 28.2288 33.1078C28.3777 33.0969 28.517 33.0126 28.6161 32.8733C28.7153 32.7341 28.7661 32.5513 28.7574 32.3652C28.7316 31.8319 28.7183 31.2978 28.7175 30.7635C28.7151 28.6355 28.9634 27.4422 29.2071 26.8182V39.9973C29.2071 40.5976 29.5964 41.0837 30.0764 41.0837C30.5564 41.0837 30.9457 40.5976 30.9457 39.9973V32.0654H31.2714V39.9973C31.2714 40.2854 31.363 40.5617 31.526 40.7655C31.689 40.9692 31.9101 41.0837 32.1407 41.0837C32.2549 41.0837 32.3679 41.0557 32.4734 41.0011C32.5789 40.9465 32.6748 40.8665 32.7555 40.7656C32.8362 40.6647 32.9003 40.5449 32.944 40.4131C32.9877 40.2813 33.0102 40.14 33.0102 39.9973V26.251C33.0766 26.2702 33.1447 26.2894 33.2155 26.3083C33.444 26.3677 33.6875 26.4226 33.9448 26.4241C34.1606 26.4203 34.406 26.3928 34.6582 26.1831C34.7894 26.0704 34.8945 25.9164 34.9628 25.7367C35.032 25.5536 35.0587 25.3584 35.0585 25.1726Z" fill="#060606"/>
</svg>
