<svg width="77" height="77" viewBox="0 0 77 77" fill="none" xmlns="http://www.w3.org/2000/svg">
<circle cx="38.5" cy="38.5" r="38.5" fill="#B8D1F5"/>
<path d="M14.13 50V25.5H24.315C26.905 25.5 28.935 26.0367 30.405 27.11C31.8983 28.16 32.645 29.7117 32.645 31.765C32.645 33.795 31.9333 35.335 30.51 36.385C29.0867 37.4117 27.22 37.925 24.91 37.925L25.505 37.05C28.235 37.05 30.3117 37.5867 31.735 38.66C33.1583 39.7333 33.87 41.3083 33.87 43.385C33.87 45.485 33.1233 47.1183 31.63 48.285C30.16 49.4283 27.9433 50 24.98 50H14.13ZM16.685 47.935H24.98C27.0567 47.935 28.6317 47.55 29.705 46.78C30.7783 46.01 31.315 44.82 31.315 43.21C31.315 41.6233 30.7783 40.4567 29.705 39.71C28.6317 38.9633 27.0567 38.59 24.98 38.59H16.685V47.935ZM16.685 36.595H24.175C26.065 36.595 27.5117 36.2217 28.515 35.475C29.5417 34.705 30.055 33.5733 30.055 32.08C30.055 30.5867 29.5417 29.4667 28.515 28.72C27.5117 27.95 26.065 27.565 24.175 27.565H16.685V36.595ZM40.3458 50V25.5H60.9608V50H58.4058V27.04L59.0708 27.74H42.2358L42.9008 27.04V50H40.3458Z" fill="black"/>
</svg>
