<svg width="28" height="17" viewBox="0 0 28 17" fill="none" xmlns="http://www.w3.org/2000/svg">
<path fill-rule="evenodd" clip-rule="evenodd" d="M26.2249 2.04919C27.0321 2.73993 27.2955 4.3085 27.2955 4.3085C27.2955 4.3085 27.5649 6.15095 27.5649 7.99268V9.71989C27.5649 11.5623 27.2955 13.4041 27.2955 13.4041C27.2955 13.4041 27.0321 14.9726 26.2249 15.6634C25.302 16.4805 24.2787 16.5649 23.7003 16.6127C23.6367 16.6179 23.5785 16.6227 23.5264 16.628C19.7572 16.8585 14.0976 16.8656 14.0976 16.8656C14.0976 16.8656 7.0946 16.8115 4.93984 16.6365C4.83775 16.6204 4.71399 16.6079 4.57384 16.5937C3.8913 16.5245 2.82001 16.4159 1.96946 15.6634C1.16227 14.9726 0.899656 13.4041 0.899656 13.4041C0.899656 13.4041 0.63031 11.5623 0.63031 9.71989V7.99268C0.63031 6.15095 0.899656 4.3085 0.899656 4.3085C0.899656 4.3085 1.16227 2.73993 1.96946 2.04919C2.89438 1.23091 3.91864 1.14739 4.49708 1.10023C4.5598 1.09512 4.61727 1.09043 4.66881 1.08528C8.43796 0.854797 14.0917 0.854797 14.0917 0.854797H14.1035C14.1035 0.854797 19.7572 0.854797 23.5264 1.08528C23.5779 1.09044 23.6354 1.09513 23.6982 1.10025C24.2762 1.14742 25.3009 1.23104 26.2249 2.04919ZM11.3158 5.41688L11.3166 11.8128L18.5931 8.62587L11.3158 5.41688Z" fill="white"/>
</svg>
